<svg width="32" height="32" viewBox="0 0 32 32" fill="none" xmlns="http://www.w3.org/2000/svg">
<path d="M15.5011 3C12.1064 3 11.6803 3.01488 10.347 3.0755C9.01625 3.1365 8.10787 3.34712 7.31313 3.65625C6.49088 3.9755 5.7935 4.40262 5.09875 5.09762C4.40338 5.7925 3.97625 6.48987 3.656 7.31175C3.346 8.10675 3.13512 9.0155 3.07525 10.3456C3.01562 11.679 3 12.1053 3 15.5001C3 18.895 3.015 19.3197 3.0755 20.653C3.13675 21.9837 3.34738 22.8921 3.65625 23.6869C3.97575 24.5091 4.40288 25.2065 5.09788 25.9013C5.7925 26.5966 6.48988 27.0247 7.3115 27.344C8.10687 27.6531 9.01537 27.8637 10.3459 27.9247C11.6792 27.9854 12.105 28.0002 15.4996 28.0002C18.8948 28.0002 19.3195 27.9854 20.6528 27.9247C21.9835 27.8637 22.8929 27.6531 23.6882 27.344C24.5101 27.0247 25.2065 26.5966 25.901 25.9013C26.5964 25.2065 27.0234 24.5091 27.3438 23.6873C27.651 22.8921 27.862 21.9835 27.9245 20.6532C27.9844 19.32 28 18.895 28 15.5001C28 12.1053 27.9844 11.6792 27.9245 10.3459C27.862 9.01512 27.651 8.10688 27.3438 7.31213C27.0234 6.48988 26.5964 5.7925 25.901 5.09762C25.2057 4.40237 24.5104 3.97525 23.6875 3.65637C22.8906 3.34712 21.9817 3.13638 20.651 3.0755C19.3176 3.01488 18.8931 3 15.4972 3H15.5011ZM14.3798 5.25262C14.7126 5.25213 15.084 5.25262 15.5011 5.25262C18.8388 5.25262 19.2342 5.26463 20.5522 5.3245C21.771 5.38025 22.4325 5.58388 22.8731 5.755C23.4565 5.9815 23.8724 6.25238 24.3096 6.69C24.7471 7.1275 25.0179 7.54412 25.245 8.1275C25.4161 8.5675 25.62 9.229 25.6755 10.4478C25.7354 11.7655 25.7484 12.1612 25.7484 15.4972C25.7484 18.8333 25.7354 19.2291 25.6755 20.5467C25.6198 21.7655 25.4161 22.427 25.245 22.8671C25.0185 23.4505 24.7471 23.8659 24.3096 24.3031C23.8721 24.7406 23.4568 25.0114 22.8731 25.238C22.433 25.4099 21.771 25.613 20.5522 25.6688C19.2345 25.7286 18.8388 25.7416 15.5011 25.7416C12.1634 25.7416 11.7677 25.7286 10.4501 25.6688C9.23137 25.6125 8.56987 25.4089 8.12887 25.2377C7.54562 25.0111 7.12887 24.7404 6.69137 24.3029C6.25387 23.8654 5.98312 23.4498 5.756 22.8661C5.58488 22.426 5.381 21.7645 5.3255 20.5457C5.26562 19.228 5.25362 18.8323 5.25362 15.4941C5.25362 12.156 5.26562 11.7624 5.3255 10.4446C5.38125 9.22587 5.58488 8.56437 5.756 8.12375C5.98263 7.54037 6.25388 7.12375 6.6915 6.68625C7.12913 6.24875 7.54562 5.97787 8.129 5.75087C8.56962 5.579 9.23137 5.37587 10.4501 5.31987C11.6032 5.26775 12.0501 5.25212 14.3798 5.2495V5.25262ZM22.1736 7.32812C21.3455 7.32812 20.6736 7.99938 20.6736 8.82763C20.6736 9.65575 21.3455 10.3276 22.1736 10.3276C23.0018 10.3276 23.6736 9.65575 23.6736 8.82763C23.6736 7.9995 23.0018 7.32762 22.1736 7.32762V7.32812ZM15.5011 9.08075C11.9561 9.08075 9.08187 11.955 9.08187 15.5001C9.08187 19.0452 11.9561 21.9181 15.5011 21.9181C19.0462 21.9181 21.9195 19.0452 21.9195 15.5001C21.9195 11.9551 19.046 9.08075 15.5009 9.08075H15.5011ZM15.5011 11.3334C17.8022 11.3334 19.6679 13.1988 19.6679 15.5001C19.6679 17.8013 17.8022 19.6669 15.5011 19.6669C13.2 19.6669 11.3345 17.8013 11.3345 15.5001C11.3345 13.1988 13.1999 11.3334 15.5011 11.3334Z" fill="white"/>
<path d="M15.5011 3C12.1064 3 11.6803 3.01488 10.347 3.0755C9.01625 3.1365 8.10787 3.34712 7.31313 3.65625C6.49088 3.9755 5.7935 4.40262 5.09875 5.09762C4.40338 5.7925 3.97625 6.48987 3.656 7.31175C3.346 8.10675 3.13512 9.0155 3.07525 10.3456C3.01562 11.679 3 12.1053 3 15.5001C3 18.895 3.015 19.3197 3.0755 20.653C3.13675 21.9837 3.34738 22.8921 3.65625 23.6869C3.97575 24.5091 4.40288 25.2065 5.09788 25.9013C5.7925 26.5966 6.48988 27.0247 7.3115 27.344C8.10687 27.6531 9.01537 27.8637 10.3459 27.9247C11.6792 27.9854 12.105 28.0002 15.4996 28.0002C18.8948 28.0002 19.3195 27.9854 20.6528 27.9247C21.9835 27.8637 22.8929 27.6531 23.6882 27.344C24.5101 27.0247 25.2065 26.5966 25.901 25.9013C26.5964 25.2065 27.0234 24.5091 27.3438 23.6873C27.651 22.8921 27.862 21.9835 27.9245 20.6532C27.9844 19.32 28 18.895 28 15.5001C28 12.1053 27.9844 11.6792 27.9245 10.3459C27.862 9.01512 27.651 8.10688 27.3438 7.31213C27.0234 6.48988 26.5964 5.7925 25.901 5.09762C25.2057 4.40237 24.5104 3.97525 23.6875 3.65637C22.8906 3.34712 21.9817 3.13638 20.651 3.0755C19.3176 3.01488 18.8931 3 15.4972 3H15.5011ZM14.3798 5.25262C14.7126 5.25213 15.084 5.25262 15.5011 5.25262C18.8388 5.25262 19.2342 5.26463 20.5522 5.3245C21.771 5.38025 22.4325 5.58388 22.8731 5.755C23.4565 5.9815 23.8724 6.25238 24.3096 6.69C24.7471 7.1275 25.0179 7.54412 25.245 8.1275C25.4161 8.5675 25.62 9.229 25.6755 10.4478C25.7354 11.7655 25.7484 12.1612 25.7484 15.4972C25.7484 18.8333 25.7354 19.2291 25.6755 20.5467C25.6198 21.7655 25.4161 22.427 25.245 22.8671C25.0185 23.4505 24.7471 23.8659 24.3096 24.3031C23.8721 24.7406 23.4568 25.0114 22.8731 25.238C22.433 25.4099 21.771 25.613 20.5522 25.6688C19.2345 25.7286 18.8388 25.7416 15.5011 25.7416C12.1634 25.7416 11.7677 25.7286 10.4501 25.6688C9.23137 25.6125 8.56987 25.4089 8.12887 25.2377C7.54562 25.0111 7.12887 24.7404 6.69137 24.3029C6.25387 23.8654 5.98312 23.4498 5.756 22.8661C5.58488 22.426 5.381 21.7645 5.3255 20.5457C5.26562 19.228 5.25362 18.8323 5.25362 15.4941C5.25362 12.156 5.26562 11.7624 5.3255 10.4446C5.38125 9.22587 5.58488 8.56437 5.756 8.12375C5.98263 7.54037 6.25388 7.12375 6.6915 6.68625C7.12913 6.24875 7.54562 5.97787 8.129 5.75087C8.56962 5.579 9.23137 5.37587 10.4501 5.31987C11.6032 5.26775 12.0501 5.25212 14.3798 5.2495V5.25262ZM22.1736 7.32812C21.3455 7.32812 20.6736 7.99938 20.6736 8.82763C20.6736 9.65575 21.3455 10.3276 22.1736 10.3276C23.0018 10.3276 23.6736 9.65575 23.6736 8.82763C23.6736 7.9995 23.0018 7.32762 22.1736 7.32762V7.32812ZM15.5011 9.08075C11.9561 9.08075 9.08187 11.955 9.08187 15.5001C9.08187 19.0452 11.9561 21.9181 15.5011 21.9181C19.0462 21.9181 21.9195 19.0452 21.9195 15.5001C21.9195 11.9551 19.046 9.08075 15.5009 9.08075H15.5011ZM15.5011 11.3334C17.8022 11.3334 19.6679 13.1988 19.6679 15.5001C19.6679 17.8013 17.8022 19.6669 15.5011 19.6669C13.2 19.6669 11.3345 17.8013 11.3345 15.5001C11.3345 13.1988 13.1999 11.3334 15.5011 11.3334Z" fill="url(#paint0_radial_311_499)"/>
<path d="M15.5011 3C12.1064 3 11.6803 3.01488 10.347 3.0755C9.01625 3.1365 8.10787 3.34712 7.31313 3.65625C6.49088 3.9755 5.7935 4.40262 5.09875 5.09762C4.40338 5.7925 3.97625 6.48987 3.656 7.31175C3.346 8.10675 3.13512 9.0155 3.07525 10.3456C3.01562 11.679 3 12.1053 3 15.5001C3 18.895 3.015 19.3197 3.0755 20.653C3.13675 21.9837 3.34738 22.8921 3.65625 23.6869C3.97575 24.5091 4.40288 25.2065 5.09788 25.9013C5.7925 26.5966 6.48988 27.0247 7.3115 27.344C8.10687 27.6531 9.01537 27.8637 10.3459 27.9247C11.6792 27.9854 12.105 28.0002 15.4996 28.0002C18.8948 28.0002 19.3195 27.9854 20.6528 27.9247C21.9835 27.8637 22.8929 27.6531 23.6882 27.344C24.5101 27.0247 25.2065 26.5966 25.901 25.9013C26.5964 25.2065 27.0234 24.5091 27.3438 23.6873C27.651 22.8921 27.862 21.9835 27.9245 20.6532C27.9844 19.32 28 18.895 28 15.5001C28 12.1053 27.9844 11.6792 27.9245 10.3459C27.862 9.01512 27.651 8.10688 27.3438 7.31213C27.0234 6.48988 26.5964 5.7925 25.901 5.09762C25.2057 4.40237 24.5104 3.97525 23.6875 3.65637C22.8906 3.34712 21.9817 3.13638 20.651 3.0755C19.3176 3.01488 18.8931 3 15.4972 3H15.5011ZM14.3798 5.25262C14.7126 5.25213 15.084 5.25262 15.5011 5.25262C18.8388 5.25262 19.2342 5.26463 20.5522 5.3245C21.771 5.38025 22.4325 5.58388 22.8731 5.755C23.4565 5.9815 23.8724 6.25238 24.3096 6.69C24.7471 7.1275 25.0179 7.54412 25.245 8.1275C25.4161 8.5675 25.62 9.229 25.6755 10.4478C25.7354 11.7655 25.7484 12.1612 25.7484 15.4972C25.7484 18.8333 25.7354 19.2291 25.6755 20.5467C25.6198 21.7655 25.4161 22.427 25.245 22.8671C25.0185 23.4505 24.7471 23.8659 24.3096 24.3031C23.8721 24.7406 23.4568 25.0114 22.8731 25.238C22.433 25.4099 21.771 25.613 20.5522 25.6688C19.2345 25.7286 18.8388 25.7416 15.5011 25.7416C12.1634 25.7416 11.7677 25.7286 10.4501 25.6688C9.23137 25.6125 8.56987 25.4089 8.12887 25.2377C7.54562 25.0111 7.12887 24.7404 6.69137 24.3029C6.25387 23.8654 5.98312 23.4498 5.756 22.8661C5.58488 22.426 5.381 21.7645 5.3255 20.5457C5.26562 19.228 5.25362 18.8323 5.25362 15.4941C5.25362 12.156 5.26562 11.7624 5.3255 10.4446C5.38125 9.22587 5.58488 8.56437 5.756 8.12375C5.98263 7.54037 6.25388 7.12375 6.6915 6.68625C7.12913 6.24875 7.54562 5.97787 8.129 5.75087C8.56962 5.579 9.23137 5.37587 10.4501 5.31987C11.6032 5.26775 12.0501 5.25212 14.3798 5.2495V5.25262ZM22.1736 7.32812C21.3455 7.32812 20.6736 7.99938 20.6736 8.82763C20.6736 9.65575 21.3455 10.3276 22.1736 10.3276C23.0018 10.3276 23.6736 9.65575 23.6736 8.82763C23.6736 7.9995 23.0018 7.32762 22.1736 7.32762V7.32812ZM15.5011 9.08075C11.9561 9.08075 9.08187 11.955 9.08187 15.5001C9.08187 19.0452 11.9561 21.9181 15.5011 21.9181C19.0462 21.9181 21.9195 19.0452 21.9195 15.5001C21.9195 11.9551 19.046 9.08075 15.5009 9.08075H15.5011ZM15.5011 11.3334C17.8022 11.3334 19.6679 13.1988 19.6679 15.5001C19.6679 17.8013 17.8022 19.6669 15.5011 19.6669C13.2 19.6669 11.3345 17.8013 11.3345 15.5001C11.3345 13.1988 13.1999 11.3334 15.5011 11.3334Z" fill="url(#paint1_radial_311_499)"/>
<defs>
<radialGradient id="paint0_radial_311_499" cx="0" cy="0" r="1" gradientUnits="userSpaceOnUse" gradientTransform="translate(9.64062 29.9258) rotate(-90) scale(24.7771 23.0444)">
<stop stop-color="#FFDD55"/>
<stop offset="0.1" stop-color="#FFDD55"/>
<stop offset="0.5" stop-color="#FF543E"/>
<stop offset="1" stop-color="#C837AB"/>
</radialGradient>
<radialGradient id="paint1_radial_311_499" cx="0" cy="0" r="1" gradientTransform="matrix(2.17378 10.8601 -44.7652 8.96049 -1.1876 4.8009)" gradientUnits="userSpaceOnUse">
<stop stop-color="#3771C8"/>
<stop offset="0.128" stop-color="#3771C8"/>
<stop offset="1" stop-color="#6600FF" stop-opacity="0"/>
</radialGradient>
</defs>
</svg>
