<svg width="240" height="54" viewBox="0 0 240 54" fill="none" xmlns="http://www.w3.org/2000/svg">
<rect x="23.2875" y="40.1631" width="8.0997" height="13.837" rx="0.423955" fill="#164161"/>
<rect x="35.0975" y="33.0732" width="8.0997" height="20.9242" rx="0.423955" fill="#205E8C"/>
<rect x="46.9108" y="22.9482" width="8.0997" height="31.0489" rx="0.423955" fill="#63A8DA"/>
<path d="M0.447227 43.1984C-0.362744 43.4684 0.109739 43.5359 0.447227 43.5359C25.0166 42.321 44.0955 23.7929 50.5638 14.6807L55.1199 17.5494V0L38.9205 7.08724L44.3203 10.4621C29.1334 35.2675 1.45969 42.8609 0.447227 43.1984Z" fill="url(#paint0_linear_319_738)"/>
<path d="M75.4509 19.9158V25.4552C75.2333 25.7176 74.8973 26.0024 74.4429 26.3096C73.9884 26.6105 73.4028 26.8697 72.686 27.0873C71.9692 27.3049 71.1019 27.4137 70.0843 27.4137C69.1818 27.4137 68.3594 27.2665 67.617 26.9721C66.8745 26.6713 66.2345 26.2328 65.6969 25.6568C65.1657 25.0808 64.756 24.3768 64.468 23.5447C64.18 22.7063 64.036 21.7494 64.036 20.6742V19.8005C64.036 18.7253 64.1736 17.7685 64.4488 16.93C64.7304 16.0916 65.1305 15.3843 65.6489 14.8083C66.1673 14.2323 66.7849 13.7939 67.5018 13.4931C68.2186 13.1923 69.0154 13.0418 69.8923 13.0418C71.1083 13.0418 72.1068 13.2403 72.8876 13.6371C73.6684 14.0275 74.2637 14.5715 74.6733 15.2691C75.0893 15.9604 75.3453 16.754 75.4413 17.6501H72.6476C72.5772 17.1764 72.4428 16.7636 72.2444 16.4116C72.046 16.0596 71.7611 15.7844 71.3899 15.586C71.0251 15.3875 70.5515 15.2883 69.9691 15.2883C69.489 15.2883 69.0602 15.3875 68.6826 15.586C68.3114 15.778 67.9978 16.0628 67.7418 16.4404C67.4858 16.818 67.2905 17.2852 67.1561 17.8421C67.0217 18.3989 66.9545 19.0453 66.9545 19.7813V20.6742C66.9545 21.4038 67.0249 22.0502 67.1657 22.6135C67.3065 23.1703 67.5146 23.6407 67.7898 24.0247C68.0714 24.4024 68.417 24.6872 68.8266 24.8792C69.2362 25.0712 69.7131 25.1672 70.2571 25.1672C70.7115 25.1672 71.0891 25.1288 71.3899 25.052C71.6971 24.9752 71.9436 24.8824 72.1292 24.7736C72.3212 24.6584 72.4684 24.5496 72.5708 24.4472V21.9702H69.9403V19.9158H75.4509ZM77.1598 22.1335V21.9318C77.1598 21.1702 77.2686 20.4694 77.4862 19.8293C77.7038 19.1829 78.0206 18.6229 78.4366 18.1493C78.8527 17.6757 79.3647 17.3076 79.9727 17.0452C80.5807 16.7764 81.2784 16.642 82.0656 16.642C82.8528 16.642 83.5537 16.7764 84.1681 17.0452C84.7825 17.3076 85.2978 17.6757 85.7138 18.1493C86.1362 18.6229 86.4562 19.1829 86.6738 19.8293C86.8914 20.4694 87.0002 21.1702 87.0002 21.9318V22.1335C87.0002 22.8887 86.8914 23.5895 86.6738 24.2359C86.4562 24.876 86.1362 25.436 85.7138 25.916C85.2978 26.3896 84.7857 26.7577 84.1777 27.0201C83.5697 27.2825 82.872 27.4137 82.0848 27.4137C81.2976 27.4137 80.5967 27.2825 79.9823 27.0201C79.3743 26.7577 78.8591 26.3896 78.4366 25.916C78.0206 25.436 77.7038 24.876 77.4862 24.2359C77.2686 23.5895 77.1598 22.8887 77.1598 22.1335ZM79.9247 21.9318V22.1335C79.9247 22.5687 79.9631 22.9751 80.0399 23.3527C80.1167 23.7303 80.2383 24.0631 80.4047 24.3512C80.5775 24.6328 80.8016 24.8536 81.0768 25.0136C81.352 25.1736 81.688 25.2536 82.0848 25.2536C82.4688 25.2536 82.7984 25.1736 83.0737 25.0136C83.3489 24.8536 83.5697 24.6328 83.7361 24.3512C83.9025 24.0631 84.0241 23.7303 84.1009 23.3527C84.1841 22.9751 84.2257 22.5687 84.2257 22.1335V21.9318C84.2257 21.5094 84.1841 21.1126 84.1009 20.7414C84.0241 20.3638 83.8993 20.031 83.7265 19.7429C83.5601 19.4485 83.3393 19.2181 83.0641 19.0517C82.7888 18.8853 82.456 18.8021 82.0656 18.8021C81.6752 18.8021 81.3424 18.8853 81.0672 19.0517C80.7984 19.2181 80.5775 19.4485 80.4047 19.7429C80.2383 20.031 80.1167 20.3638 80.0399 20.7414C79.9631 21.1126 79.9247 21.5094 79.9247 21.9318ZM98.1463 25.0616V27.2217H88.5843V25.3784L93.1061 20.5302C93.5605 20.0246 93.9189 19.5797 94.1814 19.1957C94.4438 18.8053 94.6326 18.4565 94.7478 18.1493C94.8694 17.8357 94.9302 17.538 94.9302 17.2564C94.9302 16.834 94.8598 16.4724 94.719 16.1716C94.5782 15.8644 94.3702 15.6276 94.0949 15.4612C93.8261 15.2947 93.4933 15.2115 93.0965 15.2115C92.6741 15.2115 92.3093 15.3139 92.0021 15.5188C91.7012 15.7236 91.4708 16.0084 91.3108 16.3732C91.1572 16.738 91.0804 17.1508 91.0804 17.6116H88.3059C88.3059 16.7796 88.5043 16.018 88.9011 15.3267C89.2979 14.6291 89.858 14.0755 90.5812 13.6659C91.3044 13.2499 92.1621 13.0418 93.1541 13.0418C94.1334 13.0418 94.959 13.2019 95.631 13.5219C96.3094 13.8355 96.8215 14.2899 97.1671 14.8851C97.5191 15.474 97.6951 16.178 97.6951 16.9972C97.6951 17.458 97.6215 17.9093 97.4743 18.3509C97.3271 18.7861 97.1159 19.2213 96.8407 19.6565C96.5719 20.0854 96.2454 20.5206 95.8614 20.9622C95.4774 21.4038 95.0518 21.8614 94.5846 22.3351L92.1557 25.0616H98.1463ZM107.44 23.5639C107.44 23.3143 107.401 23.0903 107.324 22.8919C107.254 22.6871 107.12 22.5015 106.921 22.3351C106.723 22.1623 106.444 21.9926 106.086 21.8262C105.727 21.6598 105.263 21.487 104.694 21.3078C104.06 21.103 103.459 20.8726 102.889 20.6166C102.326 20.3606 101.826 20.063 101.391 19.7237C100.962 19.3781 100.623 18.9781 100.374 18.5237C100.13 18.0693 100.009 17.5412 100.009 16.9396C100.009 16.3572 100.137 15.8292 100.393 15.3555C100.649 14.8755 101.007 14.4659 101.468 14.1267C101.929 13.7811 102.473 13.5155 103.1 13.3299C103.734 13.1442 104.428 13.0514 105.183 13.0514C106.214 13.0514 107.113 13.2371 107.881 13.6083C108.649 13.9795 109.244 14.4883 109.667 15.1347C110.096 15.7812 110.31 16.5204 110.31 17.3524H107.449C107.449 16.9428 107.363 16.5844 107.19 16.2772C107.024 15.9636 106.768 15.7172 106.422 15.538C106.083 15.3587 105.654 15.2691 105.135 15.2691C104.636 15.2691 104.22 15.3459 103.887 15.4996C103.555 15.6468 103.305 15.8484 103.139 16.1044C102.972 16.354 102.889 16.6356 102.889 16.9492C102.889 17.186 102.947 17.4004 103.062 17.5924C103.183 17.7845 103.363 17.9637 103.599 18.1301C103.836 18.2965 104.127 18.4533 104.473 18.6005C104.819 18.7477 105.219 18.8917 105.673 19.0325C106.435 19.2629 107.104 19.5221 107.68 19.8101C108.262 20.0982 108.748 20.4214 109.139 20.7798C109.529 21.1382 109.824 21.5446 110.022 21.999C110.22 22.4535 110.32 22.9687 110.32 23.5447C110.32 24.1527 110.201 24.6968 109.964 25.1768C109.728 25.6568 109.385 26.0632 108.937 26.396C108.489 26.7289 107.955 26.9817 107.334 27.1545C106.713 27.3273 106.019 27.4137 105.251 27.4137C104.559 27.4137 103.878 27.3241 103.206 27.1449C102.534 26.9593 101.922 26.6809 101.372 26.3096C100.828 25.9384 100.393 25.4648 100.066 24.8888C99.74 24.3127 99.5768 23.6311 99.5768 22.8439H102.467C102.467 23.2791 102.534 23.6471 102.668 23.9479C102.803 24.2487 102.991 24.492 103.235 24.6776C103.484 24.8632 103.779 24.9976 104.118 25.0808C104.463 25.164 104.841 25.2056 105.251 25.2056C105.75 25.2056 106.159 25.1352 106.48 24.9944C106.806 24.8536 107.046 24.6584 107.2 24.4088C107.36 24.1591 107.44 23.8775 107.44 23.5639ZM118.25 24.7352V16.834H121.015V27.2217H118.413L118.25 24.7352ZM118.557 22.6039L119.373 22.5847C119.373 23.2759 119.293 23.9191 119.133 24.5144C118.973 25.1032 118.733 25.6152 118.413 26.0504C118.093 26.4792 117.69 26.8153 117.203 27.0585C116.717 27.2953 116.144 27.4137 115.485 27.4137C114.979 27.4137 114.512 27.3433 114.083 27.2025C113.661 27.0553 113.296 26.8281 112.989 26.5208C112.688 26.2072 112.451 25.8072 112.278 25.3208C112.112 24.828 112.029 24.2359 112.029 23.5447V16.834H114.793V23.5639C114.793 23.8711 114.829 24.1303 114.899 24.3416C114.976 24.5528 115.081 24.7256 115.216 24.86C115.35 24.9944 115.507 25.0904 115.686 25.148C115.872 25.2056 116.077 25.2344 116.301 25.2344C116.87 25.2344 117.318 25.1192 117.645 24.8888C117.978 24.6584 118.211 24.3448 118.346 23.9479C118.486 23.5447 118.557 23.0967 118.557 22.6039ZM127.418 25.2536C127.757 25.2536 128.058 25.1896 128.32 25.0616C128.583 24.9272 128.788 24.7416 128.935 24.5048C129.089 24.2615 129.169 23.9767 129.175 23.6503H131.777C131.77 24.38 131.575 25.0296 131.191 25.5992C130.807 26.1624 130.292 26.6073 129.645 26.9337C128.999 27.2537 128.276 27.4137 127.476 27.4137C126.669 27.4137 125.965 27.2793 125.364 27.0105C124.768 26.7417 124.272 26.3704 123.875 25.8968C123.479 25.4168 123.181 24.86 122.983 24.2263C122.784 23.5863 122.685 22.9015 122.685 22.1719V21.8934C122.685 21.1574 122.784 20.4726 122.983 19.8389C123.181 19.1989 123.479 18.6421 123.875 18.1685C124.272 17.6885 124.768 17.314 125.364 17.0452C125.959 16.7764 126.656 16.642 127.456 16.642C128.308 16.642 129.053 16.8052 129.693 17.1316C130.34 17.458 130.845 17.9253 131.21 18.5333C131.581 19.1349 131.77 19.8485 131.777 20.6742H129.175C129.169 20.3286 129.095 20.015 128.954 19.7333C128.82 19.4517 128.621 19.2277 128.359 19.0613C128.103 18.8885 127.786 18.8021 127.408 18.8021C127.005 18.8021 126.676 18.8885 126.42 19.0613C126.164 19.2277 125.965 19.4581 125.824 19.7525C125.684 20.0406 125.584 20.3702 125.527 20.7414C125.476 21.1062 125.45 21.4902 125.45 21.8934V22.1719C125.45 22.5751 125.476 22.9623 125.527 23.3335C125.578 23.7047 125.674 24.0343 125.815 24.3223C125.962 24.6104 126.164 24.8376 126.42 25.004C126.676 25.1704 127.008 25.2536 127.418 25.2536ZM137.671 25.2536C138.011 25.2536 138.311 25.1896 138.574 25.0616C138.836 24.9272 139.041 24.7416 139.188 24.5048C139.342 24.2615 139.422 23.9767 139.428 23.6503H142.03C142.023 24.38 141.828 25.0296 141.444 25.5992C141.06 26.1624 140.545 26.6073 139.899 26.9337C139.252 27.2537 138.529 27.4137 137.729 27.4137C136.922 27.4137 136.218 27.2793 135.617 27.0105C135.022 26.7417 134.526 26.3704 134.129 25.8968C133.732 25.4168 133.434 24.86 133.236 24.2263C133.037 23.5863 132.938 22.9015 132.938 22.1719V21.8934C132.938 21.1574 133.037 20.4726 133.236 19.8389C133.434 19.1989 133.732 18.6421 134.129 18.1685C134.526 17.6885 135.022 17.314 135.617 17.0452C136.212 16.7764 136.91 16.642 137.71 16.642C138.561 16.642 139.307 16.8052 139.947 17.1316C140.593 17.458 141.099 17.9253 141.463 18.5333C141.835 19.1349 142.023 19.8485 142.03 20.6742H139.428C139.422 20.3286 139.348 20.015 139.207 19.7333C139.073 19.4517 138.875 19.2277 138.612 19.0613C138.356 18.8885 138.039 18.8021 137.662 18.8021C137.258 18.8021 136.929 18.8885 136.673 19.0613C136.417 19.2277 136.218 19.4581 136.078 19.7525C135.937 20.0406 135.838 20.3702 135.78 20.7414C135.729 21.1062 135.703 21.4902 135.703 21.8934V22.1719C135.703 22.5751 135.729 22.9623 135.78 23.3335C135.831 23.7047 135.927 24.0343 136.068 24.3223C136.215 24.6104 136.417 24.8376 136.673 25.004C136.929 25.1704 137.262 25.2536 137.671 25.2536ZM148.414 27.4137C147.608 27.4137 146.885 27.2857 146.244 27.0297C145.604 26.7673 145.06 26.4056 144.612 25.9448C144.171 25.484 143.832 24.9496 143.595 24.3416C143.358 23.7271 143.24 23.0743 143.24 22.3831V21.999C143.24 21.2118 143.352 20.4918 143.576 19.8389C143.8 19.1861 144.12 18.6197 144.536 18.1397C144.958 17.6597 145.47 17.2916 146.072 17.0356C146.673 16.7732 147.352 16.642 148.107 16.642C148.843 16.642 149.496 16.7636 150.065 17.0068C150.635 17.25 151.112 17.5956 151.496 18.0437C151.886 18.4917 152.181 19.0293 152.379 19.6565C152.578 20.2774 152.677 20.9686 152.677 21.7302V22.8823H144.42V21.039H149.96V20.8278C149.96 20.4438 149.889 20.1014 149.749 19.8005C149.614 19.4933 149.409 19.2501 149.134 19.0709C148.859 18.8917 148.507 18.8021 148.078 18.8021C147.713 18.8021 147.4 18.8821 147.137 19.0421C146.875 19.2021 146.661 19.4261 146.494 19.7141C146.334 20.0022 146.212 20.3414 146.129 20.7318C146.052 21.1158 146.014 21.5382 146.014 21.999V22.3831C146.014 22.7991 146.072 23.1831 146.187 23.5351C146.308 23.8871 146.478 24.1911 146.696 24.4472C146.92 24.7032 147.189 24.9016 147.502 25.0424C147.822 25.1832 148.184 25.2536 148.587 25.2536C149.086 25.2536 149.55 25.1576 149.979 24.9656C150.414 24.7672 150.789 24.4696 151.102 24.0727L152.446 25.532C152.229 25.8456 151.931 26.1464 151.554 26.4344C151.182 26.7225 150.734 26.9593 150.209 27.1449C149.685 27.3241 149.086 27.4137 148.414 27.4137ZM159.867 24.3512C159.867 24.1527 159.81 23.9735 159.695 23.8135C159.579 23.6535 159.365 23.5063 159.051 23.3719C158.744 23.2311 158.299 23.1031 157.717 22.9879C157.192 22.8727 156.703 22.7287 156.248 22.5559C155.8 22.3767 155.41 22.1623 155.077 21.9126C154.75 21.663 154.494 21.3686 154.309 21.0294C154.123 20.6838 154.03 20.2902 154.03 19.8485C154.03 19.4133 154.123 19.0037 154.309 18.6197C154.501 18.2357 154.773 17.8965 155.125 17.602C155.483 17.3012 155.919 17.0676 156.431 16.9012C156.949 16.7284 157.531 16.642 158.178 16.642C159.08 16.642 159.855 16.786 160.501 17.074C161.154 17.362 161.653 17.7589 161.999 18.2645C162.351 18.7637 162.527 19.3333 162.527 19.9734H159.762C159.762 19.7045 159.704 19.4645 159.589 19.2533C159.48 19.0357 159.307 18.8661 159.071 18.7445C158.84 18.6165 158.539 18.5525 158.168 18.5525C157.861 18.5525 157.595 18.6069 157.371 18.7157C157.147 18.8181 156.975 18.9589 156.853 19.1381C156.738 19.3109 156.68 19.5029 156.68 19.7141C156.68 19.8742 156.712 20.0182 156.776 20.1462C156.847 20.2678 156.959 20.3798 157.112 20.4822C157.266 20.5846 157.464 20.6806 157.707 20.7702C157.957 20.8534 158.264 20.9302 158.629 21.0006C159.378 21.1542 160.047 21.3558 160.636 21.6054C161.224 21.8486 161.692 22.1815 162.037 22.6039C162.383 23.0199 162.556 23.5671 162.556 24.2455C162.556 24.7064 162.453 25.1288 162.248 25.5128C162.044 25.8968 161.749 26.2328 161.365 26.5208C160.981 26.8025 160.52 27.0233 159.983 27.1833C159.451 27.3369 158.853 27.4137 158.187 27.4137C157.221 27.4137 156.402 27.2409 155.73 26.8953C155.064 26.5496 154.558 26.1112 154.213 25.58C153.874 25.0424 153.704 24.492 153.704 23.9287H156.325C156.338 24.3063 156.434 24.6104 156.613 24.8408C156.799 25.0712 157.032 25.2376 157.314 25.34C157.602 25.4424 157.912 25.4936 158.245 25.4936C158.603 25.4936 158.901 25.4456 159.138 25.3496C159.375 25.2472 159.554 25.1128 159.675 24.9464C159.803 24.7736 159.867 24.5752 159.867 24.3512ZM169.967 24.3512C169.967 24.1527 169.91 23.9735 169.794 23.8135C169.679 23.6535 169.465 23.5063 169.151 23.3719C168.844 23.2311 168.399 23.1031 167.817 22.9879C167.292 22.8727 166.802 22.7287 166.348 22.5559C165.9 22.3767 165.509 22.1623 165.177 21.9126C164.85 21.663 164.594 21.3686 164.409 21.0294C164.223 20.6838 164.13 20.2902 164.13 19.8485C164.13 19.4133 164.223 19.0037 164.409 18.6197C164.601 18.2357 164.873 17.8965 165.225 17.602C165.583 17.3012 166.018 17.0676 166.53 16.9012C167.049 16.7284 167.631 16.642 168.277 16.642C169.18 16.642 169.954 16.786 170.601 17.074C171.254 17.362 171.753 17.7589 172.098 18.2645C172.45 18.7637 172.626 19.3333 172.626 19.9734H169.862C169.862 19.7045 169.804 19.4645 169.689 19.2533C169.58 19.0357 169.407 18.8661 169.17 18.7445C168.94 18.6165 168.639 18.5525 168.268 18.5525C167.961 18.5525 167.695 18.6069 167.471 18.7157C167.247 18.8181 167.074 18.9589 166.953 19.1381C166.837 19.3109 166.78 19.5029 166.78 19.7141C166.78 19.8742 166.812 20.0182 166.876 20.1462C166.946 20.2678 167.058 20.3798 167.212 20.4822C167.365 20.5846 167.564 20.6806 167.807 20.7702C168.057 20.8534 168.364 20.9302 168.729 21.0006C169.478 21.1542 170.146 21.3558 170.735 21.6054C171.324 21.8486 171.791 22.1815 172.137 22.6039C172.482 23.0199 172.655 23.5671 172.655 24.2455C172.655 24.7064 172.553 25.1288 172.348 25.5128C172.143 25.8968 171.849 26.2328 171.465 26.5208C171.081 26.8025 170.62 27.0233 170.082 27.1833C169.551 27.3369 168.953 27.4137 168.287 27.4137C167.321 27.4137 166.501 27.2409 165.829 26.8953C165.164 26.5496 164.658 26.1112 164.312 25.58C163.973 25.0424 163.804 24.492 163.804 23.9287H166.425C166.437 24.3063 166.533 24.6104 166.713 24.8408C166.898 25.0712 167.132 25.2376 167.413 25.34C167.701 25.4424 168.012 25.4936 168.345 25.4936C168.703 25.4936 169.001 25.4456 169.238 25.3496C169.474 25.2472 169.654 25.1128 169.775 24.9464C169.903 24.7736 169.967 24.5752 169.967 24.3512Z" fill="#205E8C"/>
<defs>
<linearGradient id="paint0_linear_319_738" x1="55.0105" y1="-1.03778e-06" x2="0.168744" y2="43.3672" gradientUnits="userSpaceOnUse">
<stop stop-color="#63A8DA"/>
<stop offset="0.456731" stop-color="#205E8C"/>
<stop offset="1" stop-color="#164161"/>
</linearGradient>
</defs>
</svg>
