<svg width="611" height="138" viewBox="0 0 611 138" fill="none" xmlns="http://www.w3.org/2000/svg">
<rect x="59.5126" y="102.637" width="20.7" height="35.3625" rx="1.725" fill="#164161"/>
<rect x="89.7001" y="84.525" width="20.7" height="53.475" rx="1.725" fill="#205E8C"/>
<rect x="119.888" y="58.65" width="20.7" height="79.35" rx="1.725" fill="#63A8DA"/>
<path d="M1.14295 110.4C-0.927046 111.09 0.280454 111.262 1.14295 111.262C63.9336 108.157 112.693 60.8062 129.223 37.5187L140.867 44.85V0L99.4671 18.1125L113.267 26.7375C74.4546 90.1312 3.73045 109.537 1.14295 110.4Z" fill="url(#paint0_linear_305_2515)"/>
<path d="M211.48 66.2734V88.8125C210.595 89.8802 209.228 91.0391 207.379 92.2891C205.53 93.513 203.147 94.5677 200.23 95.4531C197.314 96.3385 193.785 96.7812 189.645 96.7812C185.973 96.7812 182.626 96.1823 179.605 94.9844C176.585 93.7604 173.98 91.9766 171.793 89.6328C169.632 87.2891 167.965 84.4245 166.793 81.0391C165.621 77.6276 165.035 73.7344 165.035 69.3594V65.8047C165.035 61.4297 165.595 57.5365 166.715 54.125C167.861 50.7135 169.488 47.8359 171.598 45.4922C173.707 43.1484 176.22 41.3646 179.137 40.1406C182.053 38.9167 185.296 38.3047 188.863 38.3047C193.811 38.3047 197.874 39.112 201.051 40.7266C204.228 42.3151 206.65 44.5286 208.316 47.3672C210.009 50.1797 211.051 53.4089 211.441 57.0547H200.074C199.788 55.1276 199.241 53.4479 198.434 52.0156C197.626 50.5833 196.467 49.4635 194.957 48.6562C193.473 47.849 191.546 47.4453 189.176 47.4453C187.223 47.4453 185.478 47.849 183.941 48.6562C182.431 49.4375 181.155 50.5964 180.113 52.1328C179.072 53.6693 178.277 55.5703 177.73 57.8359C177.184 60.1016 176.91 62.7318 176.91 65.7266V69.3594C176.91 72.3281 177.197 74.9583 177.77 77.25C178.342 79.5156 179.189 81.4297 180.309 82.9922C181.454 84.5286 182.861 85.6875 184.527 86.4688C186.194 87.25 188.134 87.6406 190.348 87.6406C192.197 87.6406 193.733 87.4844 194.957 87.1719C196.207 86.8594 197.21 86.4818 197.965 86.0391C198.746 85.5703 199.345 85.1276 199.762 84.7109V74.6328H189.059V66.2734H211.48ZM218.434 75.2969V74.4766C218.434 71.3776 218.876 68.526 219.762 65.9219C220.647 63.2917 221.936 61.013 223.629 59.0859C225.322 57.1589 227.405 55.6615 229.879 54.5938C232.353 53.5 235.191 52.9531 238.395 52.9531C241.598 52.9531 244.449 53.5 246.949 54.5938C249.449 55.6615 251.546 57.1589 253.238 59.0859C254.957 61.013 256.259 63.2917 257.145 65.9219C258.03 68.526 258.473 71.3776 258.473 74.4766V75.2969C258.473 78.3698 258.03 81.2214 257.145 83.8516C256.259 86.4557 254.957 88.7344 253.238 90.6875C251.546 92.6146 249.462 94.112 246.988 95.1797C244.514 96.2474 241.676 96.7812 238.473 96.7812C235.27 96.7812 232.418 96.2474 229.918 95.1797C227.444 94.112 225.348 92.6146 223.629 90.6875C221.936 88.7344 220.647 86.4557 219.762 83.8516C218.876 81.2214 218.434 78.3698 218.434 75.2969ZM229.684 74.4766V75.2969C229.684 77.0677 229.84 78.7214 230.152 80.2578C230.465 81.7943 230.96 83.1484 231.637 84.3203C232.34 85.4661 233.251 86.3646 234.371 87.0156C235.491 87.6667 236.858 87.9922 238.473 87.9922C240.035 87.9922 241.376 87.6667 242.496 87.0156C243.616 86.3646 244.514 85.4661 245.191 84.3203C245.868 83.1484 246.363 81.7943 246.676 80.2578C247.014 78.7214 247.184 77.0677 247.184 75.2969V74.4766C247.184 72.7578 247.014 71.1432 246.676 69.6328C246.363 68.0964 245.855 66.7422 245.152 65.5703C244.475 64.3724 243.577 63.4349 242.457 62.7578C241.337 62.0807 239.983 61.7422 238.395 61.7422C236.806 61.7422 235.452 62.0807 234.332 62.7578C233.238 63.4349 232.34 64.3724 231.637 65.5703C230.96 66.7422 230.465 68.0964 230.152 69.6328C229.84 71.1432 229.684 72.7578 229.684 74.4766ZM303.824 87.2109V96H264.918V88.5L283.316 68.7734C285.165 66.7161 286.624 64.9062 287.691 63.3438C288.759 61.7552 289.527 60.3359 289.996 59.0859C290.491 57.8099 290.738 56.599 290.738 55.4531C290.738 53.7344 290.452 52.263 289.879 51.0391C289.306 49.7891 288.46 48.8255 287.34 48.1484C286.246 47.4714 284.892 47.1328 283.277 47.1328C281.559 47.1328 280.074 47.5495 278.824 48.3828C277.6 49.2161 276.663 50.375 276.012 51.8594C275.387 53.3438 275.074 55.0234 275.074 56.8984H263.785C263.785 53.513 264.592 50.4141 266.207 47.6016C267.822 44.763 270.1 42.5104 273.043 40.8438C275.986 39.151 279.475 38.3047 283.512 38.3047C287.496 38.3047 290.855 38.9557 293.59 40.2578C296.35 41.5339 298.434 43.3828 299.84 45.8047C301.272 48.2005 301.988 51.0651 301.988 54.3984C301.988 56.2734 301.689 58.1094 301.09 59.9062C300.491 61.6771 299.632 63.4479 298.512 65.2188C297.418 66.9635 296.09 68.7344 294.527 70.5312C292.965 72.3281 291.233 74.1901 289.332 76.1172L279.449 87.2109H303.824ZM341.637 81.1172C341.637 80.1016 341.48 79.1901 341.168 78.3828C340.882 77.5495 340.335 76.7943 339.527 76.1172C338.72 75.4141 337.587 74.724 336.129 74.0469C334.671 73.3698 332.783 72.6667 330.465 71.9375C327.887 71.1042 325.439 70.1667 323.121 69.125C320.829 68.0833 318.798 66.8724 317.027 65.4922C315.283 64.0859 313.902 62.4583 312.887 60.6094C311.897 58.7604 311.402 56.612 311.402 54.1641C311.402 51.7943 311.923 49.6458 312.965 47.7188C314.007 45.7656 315.465 44.099 317.34 42.7188C319.215 41.3125 321.428 40.2318 323.98 39.4766C326.559 38.7214 329.384 38.3438 332.457 38.3438C336.65 38.3438 340.309 39.099 343.434 40.6094C346.559 42.1198 348.98 44.1901 350.699 46.8203C352.444 49.4505 353.316 52.4583 353.316 55.8438H341.676C341.676 54.1771 341.324 52.7188 340.621 51.4688C339.944 50.1927 338.902 49.1901 337.496 48.4609C336.116 47.7318 334.371 47.3672 332.262 47.3672C330.23 47.3672 328.538 47.6797 327.184 48.3047C325.829 48.9036 324.814 49.724 324.137 50.7656C323.46 51.7812 323.121 52.9271 323.121 54.2031C323.121 55.1667 323.355 56.0391 323.824 56.8203C324.319 57.6016 325.048 58.3307 326.012 59.0078C326.975 59.6849 328.16 60.3229 329.566 60.9219C330.973 61.5208 332.6 62.1068 334.449 62.6797C337.548 63.6172 340.27 64.6719 342.613 65.8438C344.983 67.0156 346.962 68.3307 348.551 69.7891C350.139 71.2474 351.337 72.901 352.145 74.75C352.952 76.599 353.355 78.6953 353.355 81.0391C353.355 83.513 352.874 85.7266 351.91 87.6797C350.947 89.6328 349.553 91.2865 347.73 92.6406C345.908 93.9948 343.733 95.0234 341.207 95.7266C338.681 96.4297 335.855 96.7812 332.73 96.7812C329.918 96.7812 327.145 96.4167 324.41 95.6875C321.676 94.9323 319.189 93.7995 316.949 92.2891C314.736 90.7786 312.965 88.8516 311.637 86.5078C310.309 84.1641 309.645 81.3906 309.645 78.1875H321.402C321.402 79.9583 321.676 81.4557 322.223 82.6797C322.77 83.9036 323.538 84.8932 324.527 85.6484C325.543 86.4036 326.741 86.9505 328.121 87.2891C329.527 87.6276 331.064 87.7969 332.73 87.7969C334.762 87.7969 336.428 87.5104 337.73 86.9375C339.059 86.3646 340.035 85.5703 340.66 84.5547C341.311 83.5391 341.637 82.3932 341.637 81.1172ZM385.621 85.8828V53.7344H396.871V96H386.285L385.621 85.8828ZM386.871 77.2109L390.191 77.1328C390.191 79.9453 389.866 82.5625 389.215 84.9844C388.564 87.3802 387.587 89.4635 386.285 91.2344C384.983 92.9792 383.342 94.3464 381.363 95.3359C379.384 96.2995 377.053 96.7812 374.371 96.7812C372.314 96.7812 370.413 96.4948 368.668 95.9219C366.949 95.3229 365.465 94.3984 364.215 93.1484C362.991 91.8724 362.027 90.2448 361.324 88.2656C360.647 86.2604 360.309 83.8516 360.309 81.0391V53.7344H371.559V81.1172C371.559 82.3672 371.702 83.4219 371.988 84.2812C372.301 85.1406 372.73 85.8438 373.277 86.3906C373.824 86.9375 374.462 87.3281 375.191 87.5625C375.947 87.7969 376.78 87.9141 377.691 87.9141C380.009 87.9141 381.832 87.4453 383.16 86.5078C384.514 85.5703 385.465 84.2943 386.012 82.6797C386.585 81.0391 386.871 79.2161 386.871 77.2109ZM422.926 87.9922C424.306 87.9922 425.53 87.7318 426.598 87.2109C427.665 86.6641 428.499 85.9089 429.098 84.9453C429.723 83.9557 430.048 82.7969 430.074 81.4688H440.66C440.634 84.4375 439.84 87.0807 438.277 89.3984C436.715 91.6901 434.618 93.5 431.988 94.8281C429.358 96.1302 426.415 96.7812 423.16 96.7812C419.879 96.7812 417.014 96.2344 414.566 95.1406C412.145 94.0469 410.126 92.5365 408.512 90.6094C406.897 88.6562 405.686 86.3906 404.879 83.8125C404.072 81.2083 403.668 78.4219 403.668 75.4531V74.3203C403.668 71.3255 404.072 68.5391 404.879 65.9609C405.686 63.3568 406.897 61.0911 408.512 59.1641C410.126 57.2109 412.145 55.6875 414.566 54.5938C416.988 53.5 419.827 52.9531 423.082 52.9531C426.546 52.9531 429.579 53.6172 432.184 54.9453C434.814 56.2734 436.871 58.1745 438.355 60.6484C439.866 63.0964 440.634 66 440.66 69.3594H430.074C430.048 67.9531 429.749 66.6771 429.176 65.5312C428.629 64.3854 427.822 63.474 426.754 62.7969C425.712 62.0938 424.423 61.7422 422.887 61.7422C421.246 61.7422 419.905 62.0938 418.863 62.7969C417.822 63.474 417.014 64.4115 416.441 65.6094C415.868 66.7812 415.465 68.1224 415.23 69.6328C415.022 71.1172 414.918 72.6797 414.918 74.3203V75.4531C414.918 77.0938 415.022 78.6693 415.23 80.1797C415.439 81.6901 415.829 83.0312 416.402 84.2031C417.001 85.375 417.822 86.2995 418.863 86.9766C419.905 87.6536 421.259 87.9922 422.926 87.9922ZM464.645 87.9922C466.025 87.9922 467.249 87.7318 468.316 87.2109C469.384 86.6641 470.217 85.9089 470.816 84.9453C471.441 83.9557 471.767 82.7969 471.793 81.4688H482.379C482.353 84.4375 481.559 87.0807 479.996 89.3984C478.434 91.6901 476.337 93.5 473.707 94.8281C471.077 96.1302 468.134 96.7812 464.879 96.7812C461.598 96.7812 458.733 96.2344 456.285 95.1406C453.863 94.0469 451.845 92.5365 450.23 90.6094C448.616 88.6562 447.405 86.3906 446.598 83.8125C445.79 81.2083 445.387 78.4219 445.387 75.4531V74.3203C445.387 71.3255 445.79 68.5391 446.598 65.9609C447.405 63.3568 448.616 61.0911 450.23 59.1641C451.845 57.2109 453.863 55.6875 456.285 54.5938C458.707 53.5 461.546 52.9531 464.801 52.9531C468.264 52.9531 471.298 53.6172 473.902 54.9453C476.533 56.2734 478.59 58.1745 480.074 60.6484C481.585 63.0964 482.353 66 482.379 69.3594H471.793C471.767 67.9531 471.467 66.6771 470.895 65.5312C470.348 64.3854 469.54 63.474 468.473 62.7969C467.431 62.0938 466.142 61.7422 464.605 61.7422C462.965 61.7422 461.624 62.0938 460.582 62.7969C459.54 63.474 458.733 64.4115 458.16 65.6094C457.587 66.7812 457.184 68.1224 456.949 69.6328C456.741 71.1172 456.637 72.6797 456.637 74.3203V75.4531C456.637 77.0938 456.741 78.6693 456.949 80.1797C457.158 81.6901 457.548 83.0312 458.121 84.2031C458.72 85.375 459.54 86.2995 460.582 86.9766C461.624 87.6536 462.978 87.9922 464.645 87.9922ZM508.355 96.7812C505.074 96.7812 502.132 96.2604 499.527 95.2188C496.923 94.151 494.71 92.6797 492.887 90.8047C491.09 88.9297 489.71 86.7552 488.746 84.2812C487.783 81.7812 487.301 79.125 487.301 76.3125V74.75C487.301 71.5469 487.757 68.6172 488.668 65.9609C489.579 63.3047 490.882 61 492.574 59.0469C494.293 57.0938 496.376 55.5964 498.824 54.5547C501.272 53.487 504.033 52.9531 507.105 52.9531C510.1 52.9531 512.757 53.4479 515.074 54.4375C517.392 55.4271 519.332 56.8333 520.895 58.6562C522.483 60.4792 523.681 62.6667 524.488 65.2188C525.296 67.7448 525.699 70.5573 525.699 73.6562V78.3438H492.105V70.8438H514.645V69.9844C514.645 68.4219 514.358 67.0286 513.785 65.8047C513.238 64.5547 512.405 63.5651 511.285 62.8359C510.165 62.1068 508.733 61.7422 506.988 61.7422C505.504 61.7422 504.228 62.0677 503.16 62.7188C502.092 63.3698 501.22 64.2812 500.543 65.4531C499.892 66.625 499.397 68.0052 499.059 69.5938C498.746 71.1562 498.59 72.875 498.59 74.75V76.3125C498.59 78.0052 498.824 79.5677 499.293 81C499.788 82.4323 500.478 83.6693 501.363 84.7109C502.275 85.7526 503.368 86.5599 504.645 87.1328C505.947 87.7057 507.418 87.9922 509.059 87.9922C511.09 87.9922 512.978 87.6016 514.723 86.8203C516.493 86.013 518.017 84.8021 519.293 83.1875L524.762 89.125C523.876 90.401 522.665 91.625 521.129 92.7969C519.618 93.9688 517.796 94.9323 515.66 95.6875C513.525 96.4167 511.09 96.7812 508.355 96.7812ZM554.957 84.3203C554.957 83.513 554.723 82.7839 554.254 82.1328C553.785 81.4818 552.913 80.8828 551.637 80.3359C550.387 79.763 548.577 79.2422 546.207 78.7734C544.072 78.3047 542.079 77.7188 540.23 77.0156C538.408 76.2865 536.819 75.4141 535.465 74.3984C534.137 73.3828 533.095 72.1849 532.34 70.8047C531.585 69.3984 531.207 67.7969 531.207 66C531.207 64.2292 531.585 62.5625 532.34 61C533.121 59.4375 534.228 58.0573 535.66 56.8594C537.118 55.6354 538.889 54.6849 540.973 54.0078C543.082 53.3047 545.452 52.9531 548.082 52.9531C551.754 52.9531 554.905 53.5391 557.535 54.7109C560.191 55.8828 562.223 57.4974 563.629 59.5547C565.061 61.5859 565.777 63.9036 565.777 66.5078H554.527C554.527 65.4141 554.293 64.4375 553.824 63.5781C553.382 62.6927 552.678 62.0026 551.715 61.5078C550.777 60.987 549.553 60.7266 548.043 60.7266C546.793 60.7266 545.712 60.9479 544.801 61.3906C543.889 61.8073 543.186 62.3802 542.691 63.1094C542.223 63.8125 541.988 64.5938 541.988 65.4531C541.988 66.1042 542.118 66.6901 542.379 67.2109C542.665 67.7057 543.121 68.1615 543.746 68.5781C544.371 68.9948 545.178 69.3854 546.168 69.75C547.184 70.0885 548.434 70.401 549.918 70.6875C552.965 71.3125 555.686 72.1328 558.082 73.1484C560.478 74.138 562.379 75.4922 563.785 77.2109C565.191 78.9036 565.895 81.1302 565.895 83.8906C565.895 85.7656 565.478 87.4844 564.645 89.0469C563.811 90.6094 562.613 91.9766 561.051 93.1484C559.488 94.2943 557.613 95.1927 555.426 95.8438C553.264 96.4688 550.829 96.7812 548.121 96.7812C544.189 96.7812 540.855 96.0781 538.121 94.6719C535.413 93.2656 533.355 91.4818 531.949 89.3203C530.569 87.1328 529.879 84.8932 529.879 82.6016H540.543C540.595 84.138 540.986 85.375 541.715 86.3125C542.47 87.25 543.421 87.9271 544.566 88.3438C545.738 88.7604 547.001 88.9688 548.355 88.9688C549.814 88.9688 551.025 88.7734 551.988 88.3828C552.952 87.9661 553.681 87.4193 554.176 86.7422C554.697 86.0391 554.957 85.2318 554.957 84.3203ZM596.051 84.3203C596.051 83.513 595.816 82.7839 595.348 82.1328C594.879 81.4818 594.007 80.8828 592.73 80.3359C591.48 79.763 589.671 79.2422 587.301 78.7734C585.165 78.3047 583.173 77.7188 581.324 77.0156C579.501 76.2865 577.913 75.4141 576.559 74.3984C575.23 73.3828 574.189 72.1849 573.434 70.8047C572.678 69.3984 572.301 67.7969 572.301 66C572.301 64.2292 572.678 62.5625 573.434 61C574.215 59.4375 575.322 58.0573 576.754 56.8594C578.212 55.6354 579.983 54.6849 582.066 54.0078C584.176 53.3047 586.546 52.9531 589.176 52.9531C592.848 52.9531 595.999 53.5391 598.629 54.7109C601.285 55.8828 603.316 57.4974 604.723 59.5547C606.155 61.5859 606.871 63.9036 606.871 66.5078H595.621C595.621 65.4141 595.387 64.4375 594.918 63.5781C594.475 62.6927 593.772 62.0026 592.809 61.5078C591.871 60.987 590.647 60.7266 589.137 60.7266C587.887 60.7266 586.806 60.9479 585.895 61.3906C584.983 61.8073 584.28 62.3802 583.785 63.1094C583.316 63.8125 583.082 64.5938 583.082 65.4531C583.082 66.1042 583.212 66.6901 583.473 67.2109C583.759 67.7057 584.215 68.1615 584.84 68.5781C585.465 68.9948 586.272 69.3854 587.262 69.75C588.277 70.0885 589.527 70.401 591.012 70.6875C594.059 71.3125 596.78 72.1328 599.176 73.1484C601.572 74.138 603.473 75.4922 604.879 77.2109C606.285 78.9036 606.988 81.1302 606.988 83.8906C606.988 85.7656 606.572 87.4844 605.738 89.0469C604.905 90.6094 603.707 91.9766 602.145 93.1484C600.582 94.2943 598.707 95.1927 596.52 95.8438C594.358 96.4688 591.923 96.7812 589.215 96.7812C585.283 96.7812 581.949 96.0781 579.215 94.6719C576.507 93.2656 574.449 91.4818 573.043 89.3203C571.663 87.1328 570.973 84.8932 570.973 82.6016H581.637C581.689 84.138 582.079 85.375 582.809 86.3125C583.564 87.25 584.514 87.9271 585.66 88.3438C586.832 88.7604 588.095 88.9688 589.449 88.9688C590.908 88.9688 592.118 88.7734 593.082 88.3828C594.046 87.9661 594.775 87.4193 595.27 86.7422C595.79 86.0391 596.051 85.2318 596.051 84.3203Z" fill="#205E8C"/>
<defs>
<linearGradient id="paint0_linear_305_2515" x1="140.588" y1="-2.65221e-06" x2="0.431257" y2="110.831" gradientUnits="userSpaceOnUse">
<stop stop-color="#63A8DA"/>
<stop offset="0.456731" stop-color="#205E8C"/>
<stop offset="1" stop-color="#164161"/>
</linearGradient>
</defs>
</svg>
